<svg width="29" height="29" viewBox="0 0 29 29" fill="none" xmlns="http://www.w3.org/2000/svg">
<path d="M9.82078 18.4622C11.3788 18.4622 12.6417 17.1992 12.6417 15.6413C12.6417 14.0833 11.3788 12.8203 9.82078 12.8203C8.2628 12.8203 6.99982 14.0833 6.99982 15.6413C6.99982 17.1992 8.2628 18.4622 9.82078 18.4622Z" stroke="black" stroke-width="1.41048" stroke-linecap="round" stroke-linejoin="round"/>
<path d="M18.2837 18.4622C19.8416 18.4622 21.1046 17.1992 21.1046 15.6413C21.1046 14.0833 19.8416 12.8203 18.2837 12.8203C16.7257 12.8203 15.4627 14.0833 15.4627 15.6413C15.4627 17.1992 16.7257 18.4622 18.2837 18.4622Z" stroke="black" stroke-width="1.41048" stroke-linecap="round" stroke-linejoin="round"/>
<path d="M12.6417 15.6418L12.7906 15.5673C13.5848 15.1703 14.5196 15.1703 15.3138 15.5673L15.4627 15.6418" stroke="black" stroke-width="1.41048" stroke-linecap="round" stroke-linejoin="round"/>
<path d="M18.9889 10L20.9906 14.6706C21.0658 14.8461 21.1046 15.0352 21.1046 15.2262V15.6419" stroke="black" stroke-width="1.41048" stroke-linecap="round" stroke-linejoin="round"/>
<path d="M9.11554 10L7.11386 14.6706C7.03862 14.8461 6.99982 15.0352 6.99982 15.2262V15.6419" stroke="black" stroke-width="1.41048" stroke-linecap="round" stroke-linejoin="round"/>
</svg>
